<?xml version="1.0" encoding="ISO-8859-1" standalone="no"?>
<!DOCTYPE svg PUBLIC "-//W3C//DTD SVG 20010904//EN"
    "http://www.w3.org/TR/2001/REC-SVG-20010904/DTD/svg10.dtd">
<svg xmlns="http://www.w3.org/2000/svg"
     xmlns:xlink="http://www.w3.org/1999/xlink" xml:space="preserve"
	 width="1710px" height="1120px"
	 viewBox="0 0 1710 1120">

<g stroke="gray">
<line x1="100" x2="1700" y1="150" y2="150" />
<line x1="100" x2="1700" y1="250" y2="250" />
<line x1="100" x2="1700" y1="350" y2="350" />
<line x1="100" x2="1700" y1="450" y2="450" />
<line x1="100" x2="1700" y1="550" y2="550" />
<line x1="100" x2="1700" y1="650" y2="650" />
<line x1="100" x2="1700" y1="750" y2="750" />
<line x1="100" x2="1700" y1="850" y2="850" />
<line x1="100" x2="1700" y1="950" y2="950" />
<line x1="200" x2="200" y1="50" y2="1050" />
<line x1="300" x2="300" y1="50" y2="1050" />
<line x1="400" x2="400" y1="50" y2="1050" />
<line x1="500" x2="500" y1="50" y2="1050" />
<line x1="600" x2="600" y1="50" y2="1050" />
<line x1="700" x2="700" y1="50" y2="1050" />
<line x1="800" x2="800" y1="50" y2="1050" />
<line x1="900" x2="900" y1="50" y2="1050" />
<line x1="1000" x2="1000" y1="50" y2="1050" />
<line x1="1100" x2="1100" y1="50" y2="1050" />
<line x1="1200" x2="1200" y1="50" y2="1050" />
<line x1="1300" x2="1300" y1="50" y2="1050" />
<line x1="1400" x2="1400" y1="50" y2="1050" />
<line x1="1500" x2="1500" y1="50" y2="1050" />
<line x1="1600" x2="1600" y1="50" y2="1050" />
</g>
<rect width="1600" height="1000" x="100" y="50" fill="none" stroke="black" stroke-width="2" />

<g font-family="sans-serif" font-size="30" fill="black">
<text x="30" y="60">150</text>
<text x="30" y="160">149</text>
<text x="30" y="260">148</text>
<text x="30" y="360">147</text>
<text x="30" y="460">146</text>
<text x="30" y="560">145</text>
<text x="30" y="660">144</text>
<text x="30" y="760">143</text>
<text x="30" y="860">142</text>
<text x="30" y="960">141</text>
<text x="30" y="1060">140</text>
<text x="115" y="1100">1992</text>
<text x="215" y="1100">1993</text>
<text x="315" y="1100">1994</text>
<text x="415" y="1100">1995</text>
<text x="515" y="1100">1996</text>
<text x="615" y="1100">1997</text>
<text x="715" y="1100">1998</text>
<text x="815" y="1100">1999</text>
<text x="915" y="1100">2000</text>
<text x="1015" y="1100">2001</text>
<text x="1115" y="1100">2002</text>
<text x="1215" y="1100">2003</text>
<text x="1315" y="1100">2004</text>
<text x="1415" y="1100">2005</text>
<text x="1515" y="1100">2006</text>
<text x="1615" y="1100">2007</text>
</g>

<g transform="translate(100,50)">
<g transform="scale(100,-100)">
<g transform="translate(-1992,-150)">
<path stroke="red" stroke-width="0.1" fill="none"
	d="M 1992,148.514692 
	L 1993,148.561694 
	L 1994,148.355867 
	L 1995,148.459937 
	L 1996,148.291638 
	L 1997,148.028613 
	L 1998,147.802133 
	L 1999,147.539426 
	L 2000,146.890128 
	L 2001,146.303611 
	L 2002,145.649334 
	L 2003,144.963650 
	L 2004,144.168205 
	L 2005,143.474219 
	L 2006,142.753551
	L 2007,142.2
	L 2008,141.9832" />
</g></g></g>

</svg>
